<?xml version="1.0" encoding="utf-8"?>
<!-- Svg Vector Icons : http://www.onlinewebfonts.com/icon -->
<!DOCTYPE svg PUBLIC "-//W3C//DTD SVG 1.1//EN" "http://www.w3.org/Graphics/SVG/1.1/DTD/svg11.dtd">
<svg version="1.1" xmlns="http://www.w3.org/2000/svg" xmlns:xlink="http://www.w3.org/1999/xlink" x="0px" y="0px" viewBox="0 0 256 256" enable-background="new 0 0 256 256" xml:space="preserve">
<metadata> Svg Vector Icons : http://www.onlinewebfonts.com/icon </metadata>
<g><g><path fill="#000000" d="M127.8,56.7c-15,0-27.1,4.1-36.4,12.2c-9.2,8.2-14.2,18.1-15,29.8v9h25.3c-0.1-3.8,0.4-7,0.9-9.2c0.1-0.4,0.2-0.9,0.4-1.3c0.1-0.5,0.3-1,0.4-1.3c1.9-5.2,4.6-9.3,8-12.3c4.7-4,10.6-6,17.6-6c7.3,0,13.1,1.9,17.3,5.7c4.3,3.8,6.4,8.4,6.4,13.7c0,3.9-1.2,7.4-3.6,10.6c-1.6,2-6.4,6.3-14.4,12.8c-8,6.5-13.4,12.4-16.1,17.6c-2.7,5.2-4,11.9-4,20c0,0.8,0,3,0.1,6.6h25c-0.1-7.6,0.5-12.8,1.9-15.7c1.4-2.9,5-6.8,10.8-11.7c11.2-9.3,18.5-16.7,22-22.1c3.4-5.4,5.1-11.2,5.1-17.2c0-11-4.7-20.6-14-28.8C156.2,60.9,143.6,56.7,127.8,56.7L127.8,56.7z"/><path fill="#000000" d="M114.7,174.3h25v25h-25V174.3L114.7,174.3z"/><path fill="#000000" d="M203.1,10H52.9C29.2,10,10,29.2,10,52.9v150.1c0,23.7,19.2,42.9,42.9,42.9h150.2c23.7,0,42.9-19.2,42.9-42.9V52.9C246,29.2,226.8,10,203.1,10z M224.5,189.4c0,19.4-15.7,35.1-35.1,35.1H66.5c-19.4,0-35.1-15.7-35.1-35.1V66.6c0-19.4,15.7-35.1,35.1-35.1h122.9c19.4,0,35.1,15.7,35.1,35.1V189.4L224.5,189.4z"/></g></g>
</svg>